# xmcd
#
# Track frame offsets:
#	150
#	13937
#	28545
#	54055
#	67007
#	90437
#	113465
#	134682
#	155385
#
# Disc length: 2281 seconds
#
# Revision: 0
# Processed by: cddbd v1.5.2PL0 Copyright (c) Steve Scherf et al.
# Submitted via: audiograbber 1.83.01
#
DISCID=6908e709
DTITLE=The Charlie Daniels Band - Nightrider
DYEAR=1975
DGENRE=Country
TTITLE0=Texas
TTITLE1=Willie Jones
TTITLE2=Franklin Limestone
TTITLE3=Evil
TTITLE4=Everything is a kinda all right
TTITLE5=Funky Junky
TTITLE6=Birmingham Blues
TTITLE7=Damn good Cowboy
TTITLE8=Tomorrow`s gonna be another day
EXTD=
EXTT0=
EXTT1=
EXTT2=
EXTT3=
EXTT4=
EXTT5=
EXTT6=
EXTT7=
EXTT8=
PLAYORDER=
